<?xml version="1.0" encoding="UTF-8" standalone="no"?>
<svg
   width="1264.0"
   height="309.0"
   version="1.1"
   id="svg330"
   sodipodi:docname="kotling_ast_tree.svg"
   inkscape:version="1.2.2 (b0a8486541, 2022-12-01)"
   xmlns:inkscape="http://www.inkscape.org/namespaces/inkscape"
   xmlns:sodipodi="http://sodipodi.sourceforge.net/DTD/sodipodi-0.dtd"
   xmlns="http://www.w3.org/2000/svg"
   xmlns:svg="http://www.w3.org/2000/svg">
  <defs
     id="defs334" />
  <sodipodi:namedview
     id="namedview332"
     pagecolor="#ffffff"
     bordercolor="#666666"
     borderopacity="1.0"
     inkscape:showpageshadow="2"
     inkscape:pageopacity="0.0"
     inkscape:pagecheckerboard="0"
     inkscape:deskcolor="#d1d1d1"
     showgrid="false"
     inkscape:zoom="1.0363924"
     inkscape:cx="460.25038"
     inkscape:cy="184.77557"
     inkscape:window-width="1452"
     inkscape:window-height="1230"
     inkscape:window-x="0"
     inkscape:window-y="27"
     inkscape:window-maximized="0"
     inkscape:current-layer="svg330" />
  <line
     x1="125"
     y1="160"
     x2="287"
     y2="160"
     style="stroke:#000000;stroke-width:1;stroke-linecap:square;stroke-miterlimit:10;stroke-opacity:1"
     id="line2" />
  <line
     x1="253"
     y1="160"
     x2="415"
     y2="160"
     style="stroke:#000000;stroke-width:1;stroke-linecap:square;stroke-miterlimit:10;stroke-opacity:1"
     id="line4" />
  <line
     x1="379.0"
     y1="160.0"
     x2="541.0"
     y2="160.0"
     style="stroke-width:1.0;stroke:rgb(0,0,0);stroke-opacity:1.0;stroke-linecap:square;stroke-miterlimit:10.0"
     id="line6" />
  <line
     x1="541.0"
     y1="160.0"
     x2="715.0"
     y2="80.0"
     style="stroke-width:1.0;stroke:rgb(0,0,0);stroke-opacity:1.0;stroke-linecap:square;stroke-miterlimit:10.0"
     id="line8" />
  <line
     x1="715.0"
     y1="80.0"
     x2="904.0"
     y2="19.0"
     style="stroke-width:1.0;stroke:rgb(0,0,0);stroke-opacity:1.0;stroke-linecap:square;stroke-miterlimit:10.0"
     id="line10" />
  <line
     x1="878"
     y1="19"
     x2="1036"
     y2="19"
     style="stroke:#000000;stroke-width:1;stroke-linecap:square;stroke-miterlimit:10;stroke-opacity:1"
     id="line12" />
  <line
     x1="1014"
     y1="19"
     x2="1159"
     y2="19"
     style="stroke:#000000;stroke-width:1;stroke-linecap:square;stroke-miterlimit:10;stroke-opacity:1"
     id="line14" />
  <line
     x1="715.0"
     y1="80.0"
     x2="904.0"
     y2="142.0"
     style="stroke-width:1.0;stroke:rgb(0,0,0);stroke-opacity:1.0;stroke-linecap:square;stroke-miterlimit:10.0"
     id="line16" />
  <line
     x1="878"
     y1="142"
     x2="1036"
     y2="93"
     style="stroke:#000000;stroke-width:1;stroke-linecap:square;stroke-miterlimit:10;stroke-opacity:1"
     id="line18" />
  <line
     x1="1014"
     y1="93"
     x2="1159"
     y2="68"
     style="stroke:#000000;stroke-width:1;stroke-linecap:square;stroke-miterlimit:10;stroke-opacity:1"
     id="line20" />
  <line
     x1="1014"
     y1="93"
     x2="1159"
     y2="117"
     style="stroke:#000000;stroke-width:1;stroke-linecap:square;stroke-miterlimit:10;stroke-opacity:1"
     id="line22" />
  <line
     x1="878"
     y1="142"
     x2="1036"
     y2="191"
     style="stroke:#000000;stroke-width:1;stroke-linecap:square;stroke-miterlimit:10;stroke-opacity:1"
     id="line24" />
  <line
     x1="1014"
     y1="191"
     x2="1159"
     y2="166"
     style="stroke:#000000;stroke-width:1;stroke-linecap:square;stroke-miterlimit:10;stroke-opacity:1"
     id="line26" />
  <line
     x1="1014"
     y1="191"
     x2="1159"
     y2="215"
     style="stroke:#000000;stroke-width:1;stroke-linecap:square;stroke-miterlimit:10;stroke-opacity:1"
     id="line28" />
  <line
     x1="541.0"
     y1="160.0"
     x2="715.0"
     y2="240.0"
     style="stroke-width:1.0;stroke:rgb(0,0,0);stroke-opacity:1.0;stroke-linecap:square;stroke-miterlimit:10.0"
     id="line30" />
  <line
     x1="715.0"
     y1="240.0"
     x2="904.0"
     y2="191.0"
     style="stroke-width:1.0;stroke:rgb(0,0,0);stroke-opacity:1.0;stroke-linecap:square;stroke-miterlimit:10.0"
     id="line32" />
  <line
     x1="715.0"
     y1="240.0"
     x2="904.0"
     y2="240.0"
     style="stroke-width:1.0;stroke:rgb(0,0,0);stroke-opacity:1.0;stroke-linecap:square;stroke-miterlimit:10.0"
     id="line34" />
  <line
     x1="715.0"
     y1="240.0"
     x2="904.0"
     y2="289.0"
     style="stroke-width:1.0;stroke:rgb(0,0,0);stroke-opacity:1.0;stroke-linecap:square;stroke-miterlimit:10.0"
     id="line36" />
  <g
     style="fill:rgb(154,192,205);stroke:none"
     id="g40">
    <path
       d="M485.0,145.0L485.0,174.0C485.0,176.7614288330078,487.23858642578125,179.0,490.0,179.0L591.0,179.0C593.7614135742188,179.0,596.0,176.7614288330078,596.0,174.0L596.0,145.0C596.0,142.2385711669922,593.7614135742188,140.0,591.0,140.0L490.0,140.0C487.23858642578125,140.0,485.0,142.2385711669922,485.0,145.0Z"
       id="path38" />
  </g>
  <g
     style="stroke-width:1.5;stroke:rgb(0,0,0);stroke-opacity:1.0;stroke-linecap:square;stroke-miterlimit:10.0;fill:none"
     id="g44">
    <path
       d="M485.0,145.0L485.0,174.0C485.0,176.7614288330078,487.23858642578125,179.0,490.0,179.0L591.0,179.0C593.7614135742188,179.0,596.0,176.7614288330078,596.0,174.0L596.0,145.0C596.0,142.2385711669922,593.7614135742188,140.0,591.0,140.0L490.0,140.0C487.23858642578125,140.0,485.0,142.2385711669922,485.0,145.0Z"
       id="path42" />
  </g>
  <g
     id="g48">
    <text
       x="492.0"
       y="156.0"
       style="fill: rgb(0,0,0); fill-opacity: 1.0; font-family: sans-serif; font-size: 12px;"
       id="text46">NamespaceImpl</text>
  </g>
  <g
     id="g52">
    <text
       x="492.0"
       y="171.0"
       style="fill: rgb(0,0,0); fill-opacity: 1.0; font-family: sans-serif; font-size: 12px; font-weight: bold;"
       id="text50">data</text>
  </g>
  <g
     style="fill:#9ac0cd;stroke:none"
     id="g56"
     transform="translate(-26)">
    <path
       d="m 874,127 v 29 c 0,2.76143 2.23859,5 5,5 h 50 c 2.76141,0 5,-2.23857 5,-5 v -29 c 0,-2.76142 -2.23859,-5 -5,-5 h -50 c -2.76141,0 -5,2.23858 -5,5 z"
       id="path54" />
  </g>
  <g
     style="fill:none;stroke:#000000;stroke-width:1.5;stroke-linecap:square;stroke-miterlimit:10;stroke-opacity:1"
     id="g60"
     transform="translate(-26)">
    <path
       d="m 874,127 v 29 c 0,2.76143 2.23859,5 5,5 h 50 c 2.76141,0 5,-2.23857 5,-5 v -29 c 0,-2.76142 -2.23859,-5 -5,-5 h -50 c -2.76141,0 -5,2.23858 -5,5 z"
       id="path58" />
  </g>
  <g
     id="g64"
     transform="translate(-26)">
    <text
       x="881"
       y="138"
       style="font-size:12px;font-family:sans-serif;fill:#000000;fill-opacity:1"
       id="text62">Method</text>
  </g>
  <g
     id="g68"
     transform="translate(-26)">
    <text
       x="881"
       y="153"
       style="font-weight:bold;font-size:12px;font-family:sans-serif;fill:#000000;fill-opacity:1"
       id="text66">read</text>
  </g>
  <g
     style="fill:rgb(154,192,205);stroke:none"
     id="g72">
    <path
       d="M647.0,66.0L647.0,95.0C647.0,97.76142120361328,649.2385864257812,100.0,652.0,100.0L779.0,100.0C781.7614135742188,100.0,784.0,97.76142120361328,784.0,95.0L784.0,66.0C784.0,63.23857498168945,781.7614135742188,61.0,779.0,61.0L652.0,61.0C649.2385864257812,61.0,647.0,63.23857498168945,647.0,66.0Z"
       id="path70" />
  </g>
  <g
     style="stroke-width:1.5;stroke:rgb(0,0,0);stroke-opacity:1.0;stroke-linecap:square;stroke-miterlimit:10.0;fill:none"
     id="g76">
    <path
       d="M647.0,66.0L647.0,95.0C647.0,97.76142120361328,649.2385864257812,100.0,652.0,100.0L779.0,100.0C781.7614135742188,100.0,784.0,97.76142120361328,784.0,95.0L784.0,66.0C784.0,63.23857498168945,781.7614135742188,61.0,779.0,61.0L652.0,61.0C649.2385864257812,61.0,647.0,63.23857498168945,647.0,66.0Z"
       id="path74" />
  </g>
  <g
     id="g80">
    <text
       x="654.0"
       y="77.0"
       style="fill: rgb(0,0,0); fill-opacity: 1.0; font-family: sans-serif; font-size: 12px;"
       id="text78">InterfaceDescription</text>
  </g>
  <g
     id="g84">
    <text
       x="654.0"
       y="92.0"
       style="fill: rgb(0,0,0); fill-opacity: 1.0; font-family: sans-serif; font-size: 12px; font-weight: bold;"
       id="text82">DataReader</text>
  </g>
  <g
     style="fill:#9ac0cd;stroke:none"
     id="g88"
     transform="translate(-26)">
    <path
       d="m 871,5 v 29 c 0,2.761425 2.23859,5 5,5 h 55 c 2.76141,0 5,-2.238575 5,-5 V 5 c 0,-2.7614238 -2.23859,-5 -5,-5 h -55 c -2.76141,0 -5,2.2385762 -5,5 z"
       id="path86" />
  </g>
  <g
     style="fill:none;stroke:#000000;stroke-width:1.5;stroke-linecap:square;stroke-miterlimit:10;stroke-opacity:1"
     id="g92"
     transform="translate(-26)">
    <path
       d="m 871,5 v 29 c 0,2.761425 2.23859,5 5,5 h 55 c 2.76141,0 5,-2.238575 5,-5 V 5 c 0,-2.7614238 -2.23859,-5 -5,-5 h -55 c -2.76141,0 -5,2.2385762 -5,5 z"
       id="path90" />
  </g>
  <g
     id="g96"
     transform="translate(-26)">
    <text
       x="878"
       y="16"
       style="font-size:12px;font-family:sans-serif;fill:#000000;fill-opacity:1"
       id="text94">Method</text>
  </g>
  <g
     id="g100"
     transform="translate(-26)">
    <text
       x="878"
       y="31"
       style="font-weight:bold;font-size:12px;font-family:sans-serif;fill:#000000;fill-opacity:1"
       id="text98">getSize</text>
  </g>
  <g
     style="fill:#9ac0cd;stroke:none"
     id="g104"
     transform="translate(-48)">
    <path
       d="m 1023,78 v 29 c 0,2.76142 2.2385,5 5,5 h 67 c 2.7615,0 5,-2.23858 5,-5 V 78 c 0,-2.761421 -2.2385,-5 -5,-5 h -67 c -2.7615,0 -5,2.238579 -5,5 z"
       id="path102" />
  </g>
  <g
     style="fill:none;stroke:#000000;stroke-width:1.5;stroke-linecap:square;stroke-miterlimit:10;stroke-opacity:1"
     id="g108"
     transform="translate(-48)">
    <path
       d="m 1023,78 v 29 c 0,2.76142 2.2385,5 5,5 h 67 c 2.7615,0 5,-2.23858 5,-5 V 78 c 0,-2.761421 -2.2385,-5 -5,-5 h -67 c -2.7615,0 -5,2.238579 -5,5 z"
       id="path106" />
  </g>
  <g
     id="g112"
     transform="translate(-48)">
    <text
       x="1030"
       y="89"
       style="font-size:12px;font-family:sans-serif;fill:#000000;fill-opacity:1"
       id="text110">OutputList</text>
  </g>
  <g
     style="fill:#9ac0cd;stroke:none"
     id="g116"
     transform="translate(-26)">
    <path
       d="m 834,225 v 29 c 0,2.76141 2.23859,5 5,5 h 129 c 2.76141,0 5,-2.23859 5,-5 v -29 c 0,-2.76143 -2.23859,-5 -5,-5 H 839 c -2.76141,0 -5,2.23857 -5,5 z"
       id="path114" />
  </g>
  <g
     style="fill:none;stroke:#000000;stroke-width:1.5;stroke-linecap:square;stroke-miterlimit:10;stroke-opacity:1"
     id="g120"
     transform="translate(-26)">
    <path
       d="m 834,225 v 29 c 0,2.76141 2.23859,5 5,5 h 129 c 2.76141,0 5,-2.23859 5,-5 v -29 c 0,-2.76143 -2.23859,-5 -5,-5 H 839 c -2.76141,0 -5,2.23857 -5,5 z"
       id="path118" />
  </g>
  <g
     id="g124"
     transform="translate(-26)">
    <text
       x="841"
       y="236"
       style="font-size:12px;font-family:sans-serif;fill:#000000;fill-opacity:1"
       id="text122">DataField</text>
  </g>
  <g
     id="g128"
     transform="translate(-26)">
    <text
       x="841"
       y="251"
       style="font-weight:bold;font-size:12px;font-family:sans-serif;fill:#000000;fill-opacity:1"
       id="text126">lastBlockSize = 10</text>
  </g>
  <g
     style="fill:#9ac0cd;stroke:none"
     id="g132"
     transform="translate(36)">
    <path
       d="m 323,145 v 29 c 0,2.76143 2.23859,5 5,5 h 101 c 2.76141,0 5,-2.23857 5,-5 v -29 c 0,-2.76143 -2.23859,-5 -5,-5 H 328 c -2.76141,0 -5,2.23857 -5,5 z"
       id="path130" />
  </g>
  <g
     style="fill:none;stroke:#000000;stroke-width:1.5;stroke-linecap:square;stroke-miterlimit:10;stroke-opacity:1"
     id="g136"
     transform="translate(36)">
    <path
       d="m 323,145 v 29 c 0,2.76143 2.23859,5 5,5 h 101 c 2.76141,0 5,-2.23857 5,-5 v -29 c 0,-2.76143 -2.23859,-5 -5,-5 H 328 c -2.76141,0 -5,2.23857 -5,5 z"
       id="path134" />
  </g>
  <g
     id="g140"
     transform="translate(36)">
    <text
       x="330"
       y="156"
       style="font-size:12px;font-family:sans-serif;fill:#000000;fill-opacity:1"
       id="text138">NamespaceImpl</text>
  </g>
  <g
     id="g144"
     transform="translate(36)">
    <text
       x="330"
       y="171"
       style="font-weight:bold;font-size:12px;font-family:sans-serif;fill:#000000;fill-opacity:1"
       id="text142">goldman</text>
  </g>
  <g
     style="fill:#9ac0cd;stroke:none"
     id="g148"
     transform="translate(-48)">
    <path
       d="m 1180,152 v 29 c 0,2.76143 2.2385,5 5,5 h 44 c 2.7615,0 5,-2.23857 5,-5 v -29 c 0,-2.76143 -2.2385,-5 -5,-5 h -44 c -2.7615,0 -5,2.23857 -5,5 z"
       id="path146" />
  </g>
  <g
     style="fill:none;stroke:#000000;stroke-width:1.5;stroke-linecap:square;stroke-miterlimit:10;stroke-opacity:1"
     id="g152"
     transform="translate(-48)">
    <path
       d="m 1180,152 v 29 c 0,2.76143 2.2385,5 5,5 h 44 c 2.7615,0 5,-2.23857 5,-5 v -29 c 0,-2.76143 -2.2385,-5 -5,-5 h -44 c -2.7615,0 -5,2.23857 -5,5 z"
       id="path150" />
  </g>
  <g
     id="g156"
     transform="translate(-48)">
    <text
       x="1187"
       y="163"
       style="font-size:12px;font-family:sans-serif;fill:#000000;fill-opacity:1"
       id="text154">Input</text>
  </g>
  <g
     id="g160"
     transform="translate(-48)">
    <text
       x="1187"
       y="178"
       style="font-weight:bold;font-size:12px;font-family:sans-serif;fill:#000000;fill-opacity:1"
       id="text158">offset</text>
  </g>
  <g
     style="fill:#9ac0cd;stroke:none"
     id="g164"
     transform="translate(-26)">
    <path
       d="m 858,176 v 29 c 0,2.76143 2.23859,5 5,5 h 80 c 2.76141,0 5,-2.23857 5,-5 v -29 c 0,-2.76143 -2.23859,-5 -5,-5 h -80 c -2.76141,0 -5,2.23857 -5,5 z"
       id="path162" />
  </g>
  <g
     style="fill:none;stroke:#000000;stroke-width:1.5;stroke-linecap:square;stroke-miterlimit:10;stroke-opacity:1"
     id="g168"
     transform="translate(-26)">
    <path
       d="m 858,176 v 29 c 0,2.76143 2.23859,5 5,5 h 80 c 2.76141,0 5,-2.23857 5,-5 v -29 c 0,-2.76143 -2.23859,-5 -5,-5 h -80 c -2.76141,0 -5,2.23857 -5,5 z"
       id="path166" />
  </g>
  <g
     id="g172"
     transform="translate(-26)">
    <text
       x="865"
       y="187"
       style="font-size:12px;font-family:sans-serif;fill:#000000;fill-opacity:1"
       id="text170">DataField</text>
  </g>
  <g
     id="g176"
     transform="translate(-26)">
    <text
       x="865"
       y="202"
       style="font-weight:bold;font-size:12px;font-family:sans-serif;fill:#000000;fill-opacity:1"
       id="text174">blockCount</text>
  </g>
  <g
     style="fill:#9ac0cd;stroke:none"
     id="g180"
     transform="translate(102)">
    <path
       d="m 0,145 v 29 c 0,2.76143 2.2385762,5 5,5 h 101 c 2.76142,0 5,-2.23857 5,-5 v -29 c 0,-2.76143 -2.23858,-5 -5,-5 H 5 c -2.7614238,0 -5,2.23857 -5,5 z"
       id="path178" />
  </g>
  <g
     style="fill:none;stroke:#000000;stroke-width:1.5;stroke-linecap:square;stroke-miterlimit:10;stroke-opacity:1"
     id="g184"
     transform="translate(102)">
    <path
       d="m 0,145 v 29 c 0,2.76143 2.2385762,5 5,5 h 101 c 2.76142,0 5,-2.23857 5,-5 v -29 c 0,-2.76143 -2.23858,-5 -5,-5 H 5 c -2.7614238,0 -5,2.23857 -5,5 z"
       id="path182" />
  </g>
  <g
     id="g188"
     transform="translate(102)">
    <text
       x="7"
       y="156"
       style="font-size:12px;font-family:sans-serif;fill:#000000;fill-opacity:1"
       id="text186">NamespaceImpl</text>
  </g>
  <g
     id="g192"
     transform="translate(102)">
    <text
       x="7"
       y="171"
       style="font-weight:bold;font-size:12px;font-family:sans-serif;fill:#000000;fill-opacity:1"
       id="text190">/</text>
  </g>
  <g
     style="fill:#9ac0cd;stroke:none"
     id="g196"
     transform="translate(70)">
    <path
       d="m 161,145 v 29 c 0,2.76143 2.23857,5 5,5 h 101 c 2.76141,0 5,-2.23857 5,-5 v -29 c 0,-2.76143 -2.23859,-5 -5,-5 H 166 c -2.76143,0 -5,2.23857 -5,5 z"
       id="path194" />
  </g>
  <g
     style="fill:none;stroke:#000000;stroke-width:1.5;stroke-linecap:square;stroke-miterlimit:10;stroke-opacity:1"
     id="g200"
     transform="translate(70)">
    <path
       d="m 161,145 v 29 c 0,2.76143 2.23857,5 5,5 h 101 c 2.76141,0 5,-2.23857 5,-5 v -29 c 0,-2.76143 -2.23859,-5 -5,-5 H 166 c -2.76143,0 -5,2.23857 -5,5 z"
       id="path198" />
  </g>
  <g
     id="g204"
     transform="translate(70)">
    <text
       x="168"
       y="156"
       style="font-size:12px;font-family:sans-serif;fill:#000000;fill-opacity:1"
       id="text202">NamespaceImpl</text>
  </g>
  <g
     id="g208"
     transform="translate(70)">
    <text
       x="168"
       y="171"
       style="font-weight:bold;font-size:12px;font-family:sans-serif;fill:#000000;fill-opacity:1"
       id="text206">com</text>
  </g>
  <g
     style="fill:#9ac0cd;stroke:none"
     id="g212"
     transform="translate(-48)">
    <path
       d="m 1029,176 v 29 c 0,2.76143 2.2385,5 5,5 h 57 c 2.7615,0 5,-2.23857 5,-5 v -29 c 0,-2.76143 -2.2385,-5 -5,-5 h -57 c -2.7615,0 -5,2.23857 -5,5 z"
       id="path210" />
  </g>
  <g
     style="fill:none;stroke:#000000;stroke-width:1.5;stroke-linecap:square;stroke-miterlimit:10;stroke-opacity:1"
     id="g216"
     transform="translate(-48)">
    <path
       d="m 1029,176 v 29 c 0,2.76143 2.2385,5 5,5 h 57 c 2.7615,0 5,-2.23857 5,-5 v -29 c 0,-2.76143 -2.2385,-5 -5,-5 h -57 c -2.7615,0 -5,2.23857 -5,5 z"
       id="path214" />
  </g>
  <g
     id="g220"
     transform="translate(-48)">
    <text
       x="1036"
       y="187"
       style="font-size:12px;font-family:sans-serif;fill:#000000;fill-opacity:1"
       id="text218">InputList</text>
  </g>
  <g
     style="fill:#9ac0cd;stroke:none"
     id="g224"
     transform="translate(-48)">
    <path
       d="m 1184,201 v 29 c 0,2.76143 2.2385,5 5,5 h 36 c 2.7615,0 5,-2.23857 5,-5 v -29 c 0,-2.76143 -2.2385,-5 -5,-5 h -36 c -2.7615,0 -5,2.23857 -5,5 z"
       id="path222" />
  </g>
  <g
     style="fill:none;stroke:#000000;stroke-width:1.5;stroke-linecap:square;stroke-miterlimit:10;stroke-opacity:1"
     id="g228"
     transform="translate(-48)">
    <path
       d="m 1184,201 v 29 c 0,2.76143 2.2385,5 5,5 h 36 c 2.7615,0 5,-2.23857 5,-5 v -29 c 0,-2.76143 -2.2385,-5 -5,-5 h -36 c -2.7615,0 -5,2.23857 -5,5 z"
       id="path226" />
  </g>
  <g
     id="g232"
     transform="translate(-48)">
    <text
       x="1191"
       y="212"
       style="font-size:12px;font-family:sans-serif;fill:#000000;fill-opacity:1"
       id="text230">Input</text>
  </g>
  <g
     id="g236"
     transform="translate(-48)">
    <text
       x="1191"
       y="227"
       style="font-weight:bold;font-size:12px;font-family:sans-serif;fill:#000000;fill-opacity:1"
       id="text234">size</text>
  </g>
  <g
     style="fill:#9ac0cd;stroke:none"
     id="g240"
     transform="translate(-48)">
    <path
       d="m 1023,5 v 29 c 0,2.761425 2.2385,5 5,5 h 67 c 2.7615,0 5,-2.238575 5,-5 V 5 c 0,-2.7614238 -2.2385,-5 -5,-5 h -67 c -2.7615,0 -5,2.2385762 -5,5 z"
       id="path238" />
  </g>
  <g
     style="fill:none;stroke:#000000;stroke-width:1.5;stroke-linecap:square;stroke-miterlimit:10;stroke-opacity:1"
     id="g244"
     transform="translate(-48)">
    <path
       d="m 1023,5 v 29 c 0,2.761425 2.2385,5 5,5 h 67 c 2.7615,0 5,-2.238575 5,-5 V 5 c 0,-2.7614238 -2.2385,-5 -5,-5 h -67 c -2.7615,0 -5,2.2385762 -5,5 z"
       id="path242" />
  </g>
  <g
     id="g248"
     transform="translate(-48)">
    <text
       x="1030"
       y="16"
       style="font-size:12px;font-family:sans-serif;fill:#000000;fill-opacity:1"
       id="text246">OutputList</text>
  </g>
  <g
     style="fill:#9ac0cd;stroke:none"
     id="g252"
     transform="translate(-48)">
    <path
       d="m 1179,5 v 29 c 0,2.761425 2.2385,5 5,5 h 46 c 2.7615,0 5,-2.238575 5,-5 V 5 c 0,-2.7614238 -2.2385,-5 -5,-5 h -46 c -2.7615,0 -5,2.2385762 -5,5 z"
       id="path250" />
  </g>
  <g
     style="fill:none;stroke:#000000;stroke-width:1.5;stroke-linecap:square;stroke-miterlimit:10;stroke-opacity:1"
     id="g256"
     transform="translate(-48)">
    <path
       d="m 1179,5 v 29 c 0,2.761425 2.2385,5 5,5 h 46 c 2.7615,0 5,-2.238575 5,-5 V 5 c 0,-2.7614238 -2.2385,-5 -5,-5 h -46 c -2.7615,0 -5,2.2385762 -5,5 z"
       id="path254" />
  </g>
  <g
     id="g260"
     transform="translate(-48)">
    <text
       x="1186"
       y="16"
       style="font-size:12px;font-family:sans-serif;fill:#000000;fill-opacity:1"
       id="text258">Output</text>
  </g>
  <g
     id="g264"
     transform="translate(-48)">
    <text
       x="1186"
       y="31"
       style="font-weight:bold;font-size:12px;font-family:sans-serif;fill:#000000;fill-opacity:1"
       id="text262">size</text>
  </g>
  <g
     style="fill:#9ac0cd;stroke:none"
     id="g268"
     transform="translate(-48)">
    <path
       d="m 1179,54 v 29 c 0,2.761421 2.2385,5 5,5 h 46 c 2.7615,0 5,-2.238579 5,-5 V 54 c 0,-2.761425 -2.2385,-5 -5,-5 h -46 c -2.7615,0 -5,2.238575 -5,5 z"
       id="path266" />
  </g>
  <g
     style="fill:none;stroke:#000000;stroke-width:1.5;stroke-linecap:square;stroke-miterlimit:10;stroke-opacity:1"
     id="g272"
     transform="translate(-48)">
    <path
       d="m 1179,54 v 29 c 0,2.761421 2.2385,5 5,5 h 46 c 2.7615,0 5,-2.238579 5,-5 V 54 c 0,-2.761425 -2.2385,-5 -5,-5 h -46 c -2.7615,0 -5,2.238575 -5,5 z"
       id="path270" />
  </g>
  <g
     id="g276"
     transform="translate(-48)">
    <text
       x="1186"
       y="65"
       style="font-size:12px;font-family:sans-serif;fill:#000000;fill-opacity:1"
       id="text274">Output</text>
  </g>
  <g
     id="g280"
     transform="translate(-48)">
    <text
       x="1186"
       y="80"
       style="font-weight:bold;font-size:12px;font-family:sans-serif;fill:#000000;fill-opacity:1"
       id="text278">size</text>
  </g>
  <g
     style="fill:#9ac0cd;stroke:none"
     id="g284"
     transform="translate(-26)">
    <path
       d="m 864,274 v 29 c 0,2.76141 2.23859,5 5,5 h 68 c 2.76141,0 5,-2.23859 5,-5 v -29 c 0,-2.76141 -2.23859,-5 -5,-5 h -68 c -2.76141,0 -5,2.23859 -5,5 z"
       id="path282" />
  </g>
  <g
     style="fill:none;stroke:#000000;stroke-width:1.5;stroke-linecap:square;stroke-miterlimit:10;stroke-opacity:1"
     id="g288"
     transform="translate(-26)">
    <path
       d="m 864,274 v 29 c 0,2.76141 2.23859,5 5,5 h 68 c 2.76141,0 5,-2.23859 5,-5 v -29 c 0,-2.76141 -2.23859,-5 -5,-5 h -68 c -2.76141,0 -5,2.23859 -5,5 z"
       id="path286" />
  </g>
  <g
     id="g292"
     transform="translate(-26)">
    <text
       x="871"
       y="285"
       style="font-size:12px;font-family:sans-serif;fill:#000000;fill-opacity:1"
       id="text290">DataField</text>
  </g>
  <g
     id="g296"
     transform="translate(-26)">
    <text
       x="871"
       y="300"
       style="font-weight:bold;font-size:12px;font-family:sans-serif;fill:#000000;fill-opacity:1"
       id="text294">blockSize</text>
  </g>
  <g
     style="fill:#9ac0cd;stroke:none"
     id="g300"
     transform="translate(-48)">
    <path
       d="m 1151,103 v 29 c 0,2.76143 2.2385,5 5,5 h 101 c 2.7615,0 5,-2.23857 5,-5 v -29 c 0,-2.76142 -2.2385,-5 -5,-5 h -101 c -2.7615,0 -5,2.23858 -5,5 z"
       id="path298" />
  </g>
  <g
     style="fill:none;stroke:#000000;stroke-width:1.5;stroke-linecap:square;stroke-miterlimit:10;stroke-opacity:1"
     id="g304"
     transform="translate(-48)">
    <path
       d="m 1151,103 v 29 c 0,2.76143 2.2385,5 5,5 h 101 c 2.7615,0 5,-2.23857 5,-5 v -29 c 0,-2.76142 -2.2385,-5 -5,-5 h -101 c -2.7615,0 -5,2.23858 -5,5 z"
       id="path302" />
  </g>
  <g
     id="g308"
     transform="translate(-48)">
    <text
       x="1158"
       y="114"
       style="font-size:12px;font-family:sans-serif;fill:#000000;fill-opacity:1"
       id="text306">OutputReusable</text>
  </g>
  <g
     id="g312"
     transform="translate(-48)">
    <text
       x="1158"
       y="129"
       style="font-weight:bold;font-size:12px;font-family:sans-serif;fill:#000000;fill-opacity:1"
       id="text310">array</text>
  </g>
  <g
     style="fill:rgb(154,192,205);stroke:none"
     id="g316">
    <path
       d="M671.0,225.0L671.0,254.0C671.0,256.76141357421875,673.2385864257812,259.0,676.0,259.0L753.0,259.0C755.7614135742188,259.0,758.0,256.76141357421875,758.0,254.0L758.0,225.0C758.0,222.2385711669922,755.7614135742188,220.0,753.0,220.0L676.0,220.0C673.2385864257812,220.0,671.0,222.2385711669922,671.0,225.0Z"
       id="path314" />
  </g>
  <g
     style="stroke-width:1.5;stroke:rgb(0,0,0);stroke-opacity:1.0;stroke-linecap:square;stroke-miterlimit:10.0;fill:none"
     id="g320">
    <path
       d="M671.0,225.0L671.0,254.0C671.0,256.76141357421875,673.2385864257812,259.0,676.0,259.0L753.0,259.0C755.7614135742188,259.0,758.0,256.76141357421875,758.0,254.0L758.0,225.0C758.0,222.2385711669922,755.7614135742188,220.0,753.0,220.0L676.0,220.0C673.2385864257812,220.0,671.0,222.2385711669922,671.0,225.0Z"
       id="path318" />
  </g>
  <g
     id="g324">
    <text
       x="678.0"
       y="236.0"
       style="fill: rgb(0,0,0); fill-opacity: 1.0; font-family: sans-serif; font-size: 12px;"
       id="text322">DataClass</text>
  </g>
  <g
     id="g328">
    <text
       x="678.0"
       y="251.0"
       style="fill: rgb(0,0,0); fill-opacity: 1.0; font-family: sans-serif; font-size: 12px; font-weight: bold;"
       id="text326">GoldBuffer</text>
  </g>
</svg>
